@startuml
set namespaceSeparator ::

class "flutter::lib::src::material::ink_decoration.dart::Ink" {
  +dynamic child
  +dynamic padding
  +dynamic decoration
  +double? width
  +double? height
  -dynamic _paddingIncludingDecoration
  +void debugFillProperties()
  +dynamic createState()
}

class "flutter::lib::src::material::ink_decoration.dart::_InkState" {
  -dynamic _boxKey
  -InkDecoration? _ink
  -void _handleRemoved()
  +void deactivate()
  -dynamic _build()
  +dynamic build()
}

"flutter::lib::src::material::ink_decoration.dart::_InkState" o-- "flutter::lib::src::material::ink_decoration.dart::InkDecoration"

class "flutter::lib::src::material::ink_decoration.dart::InkDecoration" {
  -dynamic _painter
  -dynamic _decoration
  -dynamic _configuration
  +dynamic decoration
  +dynamic configuration
  -void _handleChanged()
  +void dispose()
  +void paintFeature()
}

"flutter::lib::src::material::material.dart::InkFeature" <|-- "flutter::lib::src::material::ink_decoration.dart::InkDecoration"


@enduml