@startuml
set namespaceSeparator ::

class "flutter::lib::src::material::switch_list_tile.dart::SwitchListTile" {
  +bool value
  +dynamic onChanged
  +dynamic activeColor
  +dynamic activeTrackColor
  +dynamic inactiveThumbColor
  +dynamic inactiveTrackColor
  +dynamic tileColor
  +dynamic activeThumbImage
  +dynamic inactiveThumbImage
  +dynamic title
  +dynamic subtitle
  +dynamic secondary
  +bool isThreeLine
  +bool? dense
  +dynamic contentPadding
  +bool selected
  +bool autofocus
  -_SwitchListTileType _switchListTileType
  +ListTileControlAffinity controlAffinity
  +dynamic shape
  +dynamic selectedTileColor
  +VisualDensity? visualDensity
  +dynamic focusNode
  +bool? enableFeedback
  +dynamic hoverColor
  +dynamic build()
}

"flutter::lib::src::material::switch_list_tile.dart::SwitchListTile" o-- "flutter::lib::src::material::switch_list_tile.dart::_SwitchListTileType"
"flutter::lib::src::material::switch_list_tile.dart::SwitchListTile" o-- "flutter::lib::src::material::list_tile.dart::ListTileControlAffinity"
"flutter::lib::src::material::switch_list_tile.dart::SwitchListTile" o-- "flutter::lib::src::material::theme_data.dart::VisualDensity"

class "flutter::lib::src::material::switch_list_tile.dart::_SwitchListTileType" {
  +int index
  {static} +List<_SwitchListTileType> values
  {static} +_SwitchListTileType material
  {static} +_SwitchListTileType adaptive
}

"flutter::lib::src::material::switch_list_tile.dart::_SwitchListTileType" o-- "flutter::lib::src::material::switch_list_tile.dart::_SwitchListTileType"
"dart::core::Enum" <|-- "flutter::lib::src::material::switch_list_tile.dart::_SwitchListTileType"


@enduml